<svg xmlns="http://www.w3.org/2000/svg" viewBox="0 0 512 512" height="512mm" width="512mm"><path d="M296 384.01h-80a8.009 8.008 0 00-8 8v23.999h96v-24a8.009 8.008 0 00-8-7.999zM247.57 464a76.517 76.513 0 01-3.48 15.999h23.818a76.517 76.513 0 01-3.48-15.999zM208 440a8.009 8.008 0 008 8h80a8.009 8.008 0 008-8v-8h-96zM120 384.01H40a8.009 8.008 0 00-8 8v23.999h96v-24a8.009 8.008 0 00-8-7.999zM71.571 464a76.517 76.513 0 01-3.48 15.999h23.818A76.517 76.513 0 0188.429 464zM32 440a8.009 8.008 0 008 8h80a8.009 8.008 0 008-8v-8H32zM423.57 464a76.517 76.513 0 01-3.48 15.999h23.818a76.517 76.513 0 01-3.48-15.999zM384 440a8.009 8.008 0 008 8h80a8.009 8.008 0 008-8v-8h-96zM472 384.01h-80a8.009 8.008 0 00-8 8v23.999h96v-24a8.009 8.008 0 00-8-7.999zM152 208.02h80a8.009 8.008 0 008-8v-7.999h-96v8a8.009 8.008 0 008 7.999zM240 152.02a8.009 8.008 0 00-8-8h-80a8.009 8.008 0 00-8 8v23.999h96zM368 112.02h-56V88.021h-16v23.999h-8v31.998h80zm-16 23.999h-16V120.02h16z" fill="currentColor"/><path d="M384 104.02v23.999h68a28 27.998 0 100-55.997h-4a8 8 0 01-8-8 32 31.998 0 00-62.514-9.663 8 8 0 01-5.3 5.237 13.017 13.016 0 00-8.387 8 8 8 0 01-5.815 5.085 28.145 28.143 0 00-21.669 23.34H376a8 8 0 018 8zm48-8h32v16h-32zm-32 0h16v16h-16zM368 160.02h-80v31.998h80zm-16 23.999h-16V168.02h16zM248 320.01h16v15.999h-16zM248 272.01h16v31.998h-16z" fill="currentColor"/><path d="M80 272.01a24.006 24.005 0 0022.629-15.999h306.74a24 23.999 0 100-15.999h-41.371v-31.998h-80v31.998h-84.091a76.517 76.513 0 01-3.48-15.999h-16.858a76.517 76.513 0 01-3.48 15.999h-77.462a24 23.999 0 10-22.629 31.998zm256-55.997h16v15.999h-16z" fill="currentColor"/><path d="M78.525 336.15A8 8 0 0072 344.013v23.999h16v-17.36l121.48-22.775a8 8 0 006.525-7.863v-47.997h-16v41.358zM440 368.01v-23.999a8 8 0 00-6.525-7.863l-121.48-22.776v-41.358h-16v47.997a8 8 0 006.525 7.863L424 350.65v17.359zM248 352.01h16v15.999h-16z" fill="currentColor"/></svg>